<svg id="Layer_1" data-name="Layer 1" xmlns="http://www.w3.org/2000/svg" xmlns:xlink="http://www.w3.org/1999/xlink" viewBox="0 0 56 40.7"><defs><style>.cls-1{fill:none;}.cls-2{clip-path:url(#clip-path);}.cls-3{fill:#fc7c87;}</style><clipPath id="clip-path"><rect class="cls-1" y="3.52" width="56" height="34"/></clipPath></defs><g class="cls-2"><path class="cls-3" d="M38.54,3.9h0A18,18,0,0,0,28.6,6.82,18.46,18.46,0,0,0,5.38,8.56a16.34,16.34,0,0,0-.81,23.11q.39.42.81.81a18.46,18.46,0,0,0,23.33,1.64,18,18,0,0,0,7.57,2.71,18.24,18.24,0,0,0,8-.8,17.72,17.72,0,0,0,6.8-4.14,16.44,16.44,0,0,0,4.11-6.6,15.72,15.72,0,0,0,.52-7.64,15.94,15.94,0,0,0-3.17-7,17.24,17.24,0,0,0-6.14-5A18.11,18.11,0,0,0,38.54,3.9Zm-21,21.22a1.33,1.33,0,0,0,.79,0l3.14-.89a2.13,2.13,0,0,0,.13.51L18,29.26,13.76,24ZM21,20.42v1.22l-3,.89-5.82-1.64L18,12.12l3.39,5.14a15.59,15.59,0,0,0-.33,3.2ZM22.4,14,19.1,9a1.45,1.45,0,0,0-1.16-.57,1.52,1.52,0,0,0-.66.15,1.36,1.36,0,0,0-.5.42L8.85,21a1.29,1.29,0,0,0-.19.75,1.42,1.42,0,0,0,.27.73l7.93,9.74a1.37,1.37,0,0,0,.48.38,1.54,1.54,0,0,0,.6.13,1.59,1.59,0,0,0,.61-.13,1.47,1.47,0,0,0,.48-.38l3.71-4.56a16.56,16.56,0,0,0,3.73,4.83,15.84,15.84,0,0,1-6.59,2.36,16.12,16.12,0,0,1-7-.71A15.34,15.34,0,0,1,7,30.49a14.29,14.29,0,0,1-3.56-5.75A13.64,13.64,0,0,1,3,18.12,13.94,13.94,0,0,1,5.76,12a15.14,15.14,0,0,1,5.39-4.3,16,16,0,0,1,15.28.87,16.28,16.28,0,0,0-4,5.44Zm30.48,6.49a13,13,0,0,1-1.75,6.5,14,14,0,0,1-4.81,4.93,15.11,15.11,0,0,1-13.7,1,14.37,14.37,0,0,1-5.57-4.15,13.23,13.23,0,0,1-2.8-6.16,12.88,12.88,0,0,1,.64-6.68,13.42,13.42,0,0,1,3.93-5.58,13.66,13.66,0,0,1,2-1.46A15.1,15.1,0,0,1,45.5,8.52a14,14,0,0,1,5.42,5,13.19,13.19,0,0,1,2,6.92Z"/><path class="cls-3" d="M43.43,19.61a3.14,3.14,0,0,0,1.2-1.35,2.9,2.9,0,0,0,.24-1.74c-.32-2.29-3.5-2.77-4.61-2.87v-2.9H38.2v2.87H37.12V10.75H35.05v2.87h-3.8v2h1.51c.7,0,.85.23.85.57v7.93c0,.5-.22.77-.64.77H31.44V27H35.1v2.93h2.08V27h1.08v2.93h2V27h.31c3.49,0,5.26-1.45,5.26-4.33a3,3,0,0,0-.69-1.89A3.46,3.46,0,0,0,43.43,19.61Zm-3.92-.49H37.12V15.75h1.25c1.24,0,2.71.26,2.71,1.52a1.65,1.65,0,0,1-.41,1.2,1.86,1.86,0,0,1-1.16.61Zm-2.39,5.66V21.12h2.33c.1,0,2.6,0,2.6,1.52s-1,2.12-2.85,2.14Z"/></g></svg>