<svg id="Layer_1" data-name="Layer 1" xmlns="http://www.w3.org/2000/svg" viewBox="0 0 43 43"><defs><style>.cls-1{fill:#eec49e;}</style></defs><path class="cls-1" d="M25.3,16.27l-2.67-5.41a1.26,1.26,0,0,0-2.26,0L17.7,16.27l-6,.87A1.26,1.26,0,0,0,11,19.29l4.31,4.21-1,5.94a1.27,1.27,0,0,0,1.83,1.33L21.5,28l5.34,2.81a1.27,1.27,0,0,0,1.83-1.33l-1-5.94L32,19.29a1.26,1.26,0,0,0-.69-2.15Zm.11,5.88a1.29,1.29,0,0,0-.36,1.12l.7,4.08-3.66-1.93a1.31,1.31,0,0,0-1.18,0l-3.66,1.93.7-4.08a1.29,1.29,0,0,0-.36-1.12l-3-2.88,4.1-.6a1.28,1.28,0,0,0,1-.69l1.83-3.71L23.33,18a1.28,1.28,0,0,0,1,.69l4.1.6Z"/><path class="cls-1" d="M21.5,0A21.5,21.5,0,1,0,43,21.5,21.54,21.54,0,0,0,21.5,0Zm0,40.48a19,19,0,1,1,19-19A19,19,0,0,1,21.5,40.48Z"/><path class="cls-1" d="M21.5,5A16.46,16.46,0,1,0,38,21.5,16.53,16.53,0,0,0,21.5,5Zm0,30.4A13.94,13.94,0,1,1,35.44,21.5,14,14,0,0,1,21.5,35.44Z"/></svg>