<svg id="Layer_1" data-name="Layer 1" xmlns="http://www.w3.org/2000/svg" xmlns:xlink="http://www.w3.org/1999/xlink" viewBox="0 0 47 47"><defs><style>.cls-1{fill:none;}.cls-2{clip-path:url(#clip-path);}.cls-3{fill:#f6d783;}</style><clipPath id="clip-path"><rect class="cls-1" width="47" height="47"/></clipPath></defs><g class="cls-2"><path class="cls-3" d="M15.67,47c7.78,0,15.66-1.61,15.66-4.7V36A2.4,2.4,0,0,0,31,34.89a2.44,2.44,0,0,0-.86-.83,2.6,2.6,0,0,0,.86-.82,2.52,2.52,0,0,0,.37-1.13V25.84A2.48,2.48,0,0,0,31,24.7a2.44,2.44,0,0,0-.86-.83,2.44,2.44,0,0,0,1.23-1.95V20.16l10.5,10.5a2.34,2.34,0,0,0,3.32,0l1.16-1.16a2.35,2.35,0,0,0,0-3.33L28.7,8.56A1.6,1.6,0,0,0,28.76,8,44.91,44.91,0,0,1,36.23,2.2a1.23,1.23,0,0,0,.5-.58,1.2,1.2,0,0,0-.4-1.41A1.16,1.16,0,0,0,35.59,0c-4.81.23-8.7,3.27-10,4.44a1.64,1.64,0,0,0-1.05-.07L23.19,3a2.42,2.42,0,0,0-3.32,0L18.71,4.2a2.34,2.34,0,0,0,0,3.32L20,8.85a1.64,1.64,0,0,0,.07,1.05c-.24.28-.58.68-.95,1.18C18.07,11,16.93,11,15.67,11,7.88,11,0,12.58,0,15.67v6.27a2.38,2.38,0,0,0,.38,1.12,2.39,2.39,0,0,0,.85.82,2.53,2.53,0,0,0-.86.83A2.6,2.6,0,0,0,0,25.85v6.27a2.52,2.52,0,0,0,.37,1.13,2.6,2.6,0,0,0,.86.82,2.36,2.36,0,0,0-.86.83A2.52,2.52,0,0,0,0,36V42.3C0,45.39,7.88,47,15.67,47Zm0-1.57c-9.13,0-14.1-2.07-14.1-3.13V38.2c2.68,1.68,8.41,2.53,14.1,2.53s11.41-.86,14.1-2.53v4.1C29.77,43.36,24.79,45.43,15.67,45.43Zm12.6-12.09c-2.11.95-6.39,1.91-12.6,1.91-9.13,0-14.1-2.07-14.1-3.13V28c2.68,1.67,8.41,2.53,14.1,2.53s11.41-.86,14.1-2.53v4.1c0,.34-.52.78-1.5,1.23Zm1.5-11.41c0,1.07-5,3.14-14.1,3.14S1.57,23,1.57,21.93V17.84c2.68,1.67,8.41,2.53,14.1,2.53h.09a1.24,1.24,0,0,0,.29.46,1.15,1.15,0,0,0,.48.27,1.26,1.26,0,0,0,.33,0,1.18,1.18,0,0,0,1-.59l.16-.25c4.89-.19,9-1,11.27-2.18l.47.46ZM21.15,11.1l1.13,1.12s0,0,0,0v.05a49.17,49.17,0,0,0-4.81,6A17.16,17.16,0,0,1,21.15,11.1Zm2.54,2h.12a1.4,1.4,0,0,0,.41-.06L28.13,17a28.92,28.92,0,0,1-9,1.73A51.35,51.35,0,0,1,23.69,13.09ZM27.2,8.14h0l-3.38,3.38L21.54,9.26l3.39-3.38Zm18,20.25L44,29.55a.74.74,0,0,1-.25.17.77.77,0,0,1-.3.06.8.8,0,0,1-.3-.06.85.85,0,0,1-.25-.17L31.11,17.72l0,0-5.62-5.62,2.27-2.27L45.2,27.28a.78.78,0,0,1,.17.26.73.73,0,0,1,.06.3.8.8,0,0,1-.06.3.85.85,0,0,1-.17.25ZM27.92,6.65,26.76,5.48A16.91,16.91,0,0,1,34,1.79,49.32,49.32,0,0,0,27.92,6.65Zm-8.34-.79a.8.8,0,0,1,.06-.3.85.85,0,0,1,.17-.25L21,4.15a.78.78,0,0,1,1.11,0l1.18,1.18L21,7.6,19.81,6.41a.85.85,0,0,1-.17-.25A.8.8,0,0,1,19.58,5.86Zm-3.91,6.68c.86,0,1.66,0,2.46.06a16.17,16.17,0,0,0-2.34,6.21h-.12c-9.13,0-14.1-2.09-14.1-3.14S6.54,12.54,15.67,12.54Zm0,14.1c4.91,0,9.85-.64,12.84-1.89,1,.48,1.26.92,1.26,1.11,0,1.06-5,3.13-14.1,3.13s-14.1-2.08-14.1-3.14c0-.19.28-.62,1.26-1.11,3,1.25,7.93,1.89,12.84,1.89Zm0,10.18c4.91,0,9.85-.64,12.84-1.89,1,.49,1.26.92,1.26,1.11,0,1.06-5,3.14-14.1,3.14S1.57,37.1,1.57,36c0-.19.28-.61,1.26-1.1C5.81,36.18,10.76,36.82,15.67,36.82Z"/></g></svg>