<svg id="Layer_1" data-name="Layer 1" xmlns="http://www.w3.org/2000/svg" xmlns:xlink="http://www.w3.org/1999/xlink" viewBox="0 0 54 43"><defs><style>.cls-1{fill:none;}.cls-2{clip-path:url(#clip-path);}.cls-3{fill:#caa2dd;}</style><clipPath id="clip-path"><rect class="cls-1" width="54" height="43"/></clipPath></defs><g class="cls-2"><path class="cls-3" d="M54,29.14A54.06,54.06,0,0,0,52.49,19a39.75,39.75,0,0,0-3-8.52c-4.76-8.7-10-7.28-16-5.62L33,5a39.09,39.09,0,0,1-5.62,1.12h-.66A39,39,0,0,1,21,5l-.62-.16c-6-1.58-11.19-2.95-15.89,5.72a36.27,36.27,0,0,0-3,8.52A54.06,54.06,0,0,0,0,29.21a19.76,19.76,0,0,0,1,8,5.23,5.23,0,0,0,3.27,3.18,5.28,5.28,0,0,0,1.42.19,7.26,7.26,0,0,0,2.93-.68c2.42-1,5.31-3.17,8.6-6.36,1.94-2,5.6-3.11,9.8-3.11s7.85,1.16,9.79,3.11c3.29,3.19,6.19,5.33,8.61,6.36a6.79,6.79,0,0,0,4.35.49A5.21,5.21,0,0,0,53,37.12C53.79,35.31,54.1,32.7,54,29.14Zm-3.39,6.94A2.61,2.61,0,0,1,49,37.77a4.32,4.32,0,0,1-2.69-.35,26.92,26.92,0,0,1-7.75-5.76c-2.41-2.51-6.74-4-11.59-4s-9.14,1.44-11.66,3.86c-3.19,3.07-5.73,5-7.75,5.76a3.83,3.83,0,0,1-2.69.35,2.63,2.63,0,0,1-1.55-1.69,17.05,17.05,0,0,1-.66-6.65,49.31,49.31,0,0,1,1.4-9.6,33.27,33.27,0,0,1,2.82-7.86c3.68-6.89,8-5.71,13-4.34a38.27,38.27,0,0,0,6.59,1.32h1a38,38,0,0,0,6.65-1.32l.13,0c4.95-1.29,9.22-2.39,12.84,4.39a33,33,0,0,1,2.81,7.85,54.91,54.91,0,0,1,1.4,9.6A16.92,16.92,0,0,1,50.58,36.08Z"/><path class="cls-3" d="M20.9,15.48a4.16,4.16,0,0,0-2.39-1.2,4.19,4.19,0,0,0-1.1-2.42l-.07-.07a3.77,3.77,0,0,0-2.81-1.22,4,4,0,0,0-2.81,1.22,4.17,4.17,0,0,0-1.16,2.48,4,4,0,0,0-2.39,1.14l-.07.07a4,4,0,0,0-.87,1.34,4.37,4.37,0,0,0-.3,1.6A4.31,4.31,0,0,0,8.1,21.34a3.75,3.75,0,0,0,2.46,1.2A3.78,3.78,0,0,0,11.72,25a3.88,3.88,0,0,0,1.29.91,3.78,3.78,0,0,0,1.52.3A4,4,0,0,0,17.35,25a4.49,4.49,0,0,0,1.15-2.49,3.54,3.54,0,0,0,2.4-1.21A4.06,4.06,0,0,0,21.76,20a4.29,4.29,0,0,0-.86-4.51Zm-1.8,3.91a1.28,1.28,0,0,1-.43.3,1.13,1.13,0,0,1-.51.09h-.95a1.33,1.33,0,0,0-1,.42,1.41,1.41,0,0,0-.4,1v.9a1.26,1.26,0,0,1-.09.54,1.36,1.36,0,0,1-.28.46,1.31,1.31,0,0,1-.43.31,1.28,1.28,0,0,1-1,0,1.31,1.31,0,0,1-.43-.31,1.36,1.36,0,0,1-.28-.46,1.43,1.43,0,0,1-.09-.54v-1a1.44,1.44,0,0,0-.4-1,1.31,1.31,0,0,0-1-.42h-.94a1.13,1.13,0,0,1-.51-.09,1.28,1.28,0,0,1-.43-.3,1.37,1.37,0,0,1,0-1.89l.06-.06a1.43,1.43,0,0,1,.88-.33h.94a1.34,1.34,0,0,0,1-.41,1.45,1.45,0,0,0,.4-1v-1a1.36,1.36,0,0,1,.23-.76,1.29,1.29,0,0,1,1.35-.59,1.27,1.27,0,0,1,.68.37l.06.06a1.58,1.58,0,0,1,.32.92v1a1.45,1.45,0,0,0,.4,1,1.36,1.36,0,0,0,1,.41h.94a1.27,1.27,0,0,1,.73.24,1.34,1.34,0,0,1,.49.61,1.45,1.45,0,0,1,.08.8,1.35,1.35,0,0,1-.36.7Z"/><path class="cls-3" d="M38.66,16A2.43,2.43,0,0,0,40,15.57a2.61,2.61,0,0,0,.37-3.9A2.39,2.39,0,0,0,39.14,11a2.36,2.36,0,0,0-1.41.14,2.52,2.52,0,0,0-1.09.93,2.62,2.62,0,0,0,.3,3.2A2.42,2.42,0,0,0,38.66,16Z"/><path class="cls-3" d="M38.66,20.83a2.34,2.34,0,0,0-1.35.42,2.55,2.55,0,0,0-1,2.6,2.57,2.57,0,0,0,.66,1.3,2.47,2.47,0,0,0,1.25.69,2.36,2.36,0,0,0,1.41-.14,2.47,2.47,0,0,0,1.09-.94,2.55,2.55,0,0,0,.41-1.4,2.6,2.6,0,0,0-.71-1.79A2.38,2.38,0,0,0,38.66,20.83Z"/><path class="cls-3" d="M33.9,15.88a2.42,2.42,0,0,0-1.35.42,2.6,2.6,0,0,0-.9,1.14,2.69,2.69,0,0,0-.14,1.46,2.66,2.66,0,0,0,.67,1.3,2.43,2.43,0,0,0,1.25.69,2.32,2.32,0,0,0,1.4-.14,2.42,2.42,0,0,0,1.1-.93,2.63,2.63,0,0,0,.41-1.4,2.52,2.52,0,0,0-.19-1,2.72,2.72,0,0,0-.52-.82,2.68,2.68,0,0,0-.79-.55A2.36,2.36,0,0,0,33.9,15.88Z"/><path class="cls-3" d="M43.42,15.88a2.42,2.42,0,0,0-1.35.42,2.6,2.6,0,0,0-.9,1.14A2.69,2.69,0,0,0,41,18.9a2.66,2.66,0,0,0,.67,1.3,2.44,2.44,0,0,0,1.24.69,2.34,2.34,0,0,0,1.41-.14,2.42,2.42,0,0,0,1.1-.93,2.62,2.62,0,0,0-.3-3.2A2.42,2.42,0,0,0,43.42,15.88Z"/><path class="cls-3" d="M27,40.48a17.61,17.61,0,0,1-10-3.13L15.14,39.1a19.93,19.93,0,0,0,23.62.07l-1.87-1.72A17.62,17.62,0,0,1,27,40.48Z"/><path class="cls-3" d="M33.07,33.93a13,13,0,0,1-12.4-.14l-1.86,1.78A15.19,15.19,0,0,0,35,35.69Z"/><path class="cls-3" d="M27,2.52a17.49,17.49,0,0,1,5,.72l2-2a19.88,19.88,0,0,0-13.85-.05l2.22,1.92A17.82,17.82,0,0,1,27,2.52Z"/></g></svg>