<svg id="Layer_1" data-name="Layer 1" xmlns="http://www.w3.org/2000/svg" viewBox="0 0 26.25 26.25"><path d="M21.92,0H4.34A4.34,4.34,0,0,0,0,4.34V21.92a4.34,4.34,0,0,0,4.34,4.33H21.92a4.34,4.34,0,0,0,4.33-4.33V4.34A4.34,4.34,0,0,0,21.92,0Zm2.46,21.92a2.49,2.49,0,0,1-2.46,2.46H4.34a2.46,2.46,0,0,1-2.46-2.46V4.34A2.46,2.46,0,0,1,4.34,1.88H21.92a2.46,2.46,0,0,1,2.46,2.46Z"/><path d="M22.5,8.57a1.12,1.12,0,0,0-.35-.12.88.88,0,0,0-.36,0,.94.94,0,0,0-.33.17.81.81,0,0,0-.24.28l-2.89,5-1.76-1.42a.9.9,0,0,0-.35-.18,1,1,0,0,0-.39,0,.81.81,0,0,0-.37.15.9.9,0,0,0-.27.28l-2.73,4.34-2.6-2.31a.8.8,0,0,0-.32-.19.91.91,0,0,0-.72,0,.89.89,0,0,0-.29.22L3.25,20.94a1.14,1.14,0,0,0-.18.32.94.94,0,0,0,0,.37,1,1,0,0,0,.1.36.77.77,0,0,0,.23.28.8.8,0,0,0,.32.19,1.11,1.11,0,0,0,.36,0,1,1,0,0,0,.65-.33l4.69-5.39,2.71,2.42a.9.9,0,0,0,.76.22.8.8,0,0,0,.38-.14.86.86,0,0,0,.28-.29l2.76-4.39L18.06,16a.9.9,0,0,0,.35.18,1.08,1.08,0,0,0,.4,0,1,1,0,0,0,.37-.16.83.83,0,0,0,.27-.29l3.44-5.95A.92.92,0,0,0,23,9.12.9.9,0,0,0,22.5,8.57Z"/></svg>