<svg id="Layer_1" data-name="Layer 1" xmlns="http://www.w3.org/2000/svg" viewBox="0 0 25 25"><defs><style>.cls-1{fill-rule:evenodd;}</style></defs><path class="cls-1" d="M12.55,1C9.41,1,9,1,7.79,1.07A8.52,8.52,0,0,0,5,1.61a5.57,5.57,0,0,0-2,1.33A5.57,5.57,0,0,0,1.61,5a8.26,8.26,0,0,0-.54,2.8C1,9,1,9.41,1,12.55s0,3.52.07,4.76a8.51,8.51,0,0,0,.54,2.8,5.57,5.57,0,0,0,1.33,2,5.73,5.73,0,0,0,2,1.34,8.54,8.54,0,0,0,2.8.53c1.24.06,1.63.07,4.77.07s3.52,0,4.75-.07a8.55,8.55,0,0,0,2.81-.53,5.73,5.73,0,0,0,2-1.34,5.57,5.57,0,0,0,1.33-2,8.51,8.51,0,0,0,.54-2.8c.06-1.24.07-1.63.07-4.76S24.08,9,24,7.78A8.51,8.51,0,0,0,23.48,5a5.57,5.57,0,0,0-1.33-2,5.57,5.57,0,0,0-2-1.33,8.52,8.52,0,0,0-2.81-.54C16.07,1,15.68,1,12.54,1Zm-1,2.08h1c3.08,0,3.44,0,4.66.07a6.67,6.67,0,0,1,2.15.39,3.54,3.54,0,0,1,1.32.87,3.5,3.5,0,0,1,.87,1.33,6.53,6.53,0,0,1,.39,2.14C22,9.1,22,9.46,22,12.54s0,3.45-.07,4.67a6.65,6.65,0,0,1-.39,2.14,3.57,3.57,0,0,1-.87,1.33,3.64,3.64,0,0,1-1.32.86,6.33,6.33,0,0,1-2.15.4C16,22,15.63,22,12.55,22s-3.45,0-4.67-.06a6.25,6.25,0,0,1-2.14-.4,3.59,3.59,0,0,1-1.33-.86,3.68,3.68,0,0,1-.86-1.33,6.31,6.31,0,0,1-.4-2.14c-.06-1.22-.07-1.59-.07-4.67s0-3.45.07-4.66a6.33,6.33,0,0,1,.4-2.15A3.55,3.55,0,0,1,4.41,4.4a3.59,3.59,0,0,1,1.33-.86,6.25,6.25,0,0,1,2.14-.4c1.07-.05,1.48-.06,3.63-.06ZM18.71,5a1.39,1.39,0,1,0,1.38,1.38A1.38,1.38,0,0,0,18.71,5ZM12.55,6.62a5.93,5.93,0,1,0,5.92,5.93,5.92,5.92,0,0,0-5.92-5.93Zm0,2.08A3.85,3.85,0,1,1,8.7,12.55,3.84,3.84,0,0,1,12.55,8.7Z"/></svg>