<svg id="Layer_1" data-name="Layer 1" xmlns="http://www.w3.org/2000/svg" viewBox="0 0 25 25"><defs><style>.cls-1{fill-rule:evenodd;}</style></defs><path class="cls-1" d="M12.12,8.61l0,.75-.75-.1A12.22,12.22,0,0,1,4.24,5.72l-1-1L3,5.46A4.43,4.43,0,0,0,3.93,10c.6.64.46.74-.58.35-.36-.12-.67-.21-.7-.16a5.32,5.32,0,0,0,.54,2,4.83,4.83,0,0,0,2.06,2l.74.35-.87,0c-.85,0-.88,0-.79.33a4.54,4.54,0,0,0,2.82,2.51l.93.32-.81.49a8.38,8.38,0,0,1-4,1.13A4.29,4.29,0,0,0,2,19.45a11.75,11.75,0,0,0,2.91,1.34,12.64,12.64,0,0,0,9.87-1.13,13.32,13.32,0,0,0,5-5.93,15.93,15.93,0,0,0,1-4.59c0-.7,0-.79.88-1.63a10.13,10.13,0,0,0,1.06-1.18c.15-.29.13-.29-.63,0-1.28.46-1.46.4-.83-.29a4.54,4.54,0,0,0,1-1.64s-.22,0-.48.17a8.6,8.6,0,0,1-1.33.52l-.81.26L19,4.82a5.56,5.56,0,0,0-1.28-.68,5.19,5.19,0,0,0-2.63.06A4.38,4.38,0,0,0,12.12,8.61Z"/></svg>