<svg id="Layer_1" data-name="Layer 1" xmlns="http://www.w3.org/2000/svg" viewBox="0 0 59.86 61.81"><defs><style>.cls-1{fill:#fff;}</style></defs><path class="cls-1" d="M24.38,31.9H19.94l-2.21,3.83,2.21,3.84h4.44l2.21-3.84Z"/><path class="cls-1" d="M24.38,41.58H19.94l-2.21,3.84,2.21,3.83h4.44l2.21-3.83Z"/><path class="cls-1" d="M24.38,51.26H19.94L17.73,55.1l2.21,3.84h4.44l2.21-3.84Z"/><path class="cls-1" d="M24.38,12.53H19.94l-2.21,3.84,2.21,3.84h4.44l2.21-3.84Z"/><path class="cls-1" d="M6.65,22.21H2.22L0,26.05l2.22,3.84H6.65l2.21-3.84Z"/><path class="cls-1" d="M42.11,41.58H37.67l-2.21,3.84,2.21,3.83h4.44l2.21-3.83Z"/><path class="cls-1" d="M42.11,12.53H37.67l-2.21,3.84,2.21,3.84h4.44l2.21-3.84Z"/><path class="cls-1" d="M33.24,7.76H28.81L26.59,11.6l2.22,3.84h4.43l2.22-3.84Z"/><path class="cls-1" d="M33.24,46.37H28.81l-2.22,3.84,2.22,3.84h4.43l2.22-3.84Z"/><path class="cls-1" d="M51,17.41H46.54l-2.22,3.84,2.22,3.84H51l2.22-3.84Z"/><path class="cls-1" d="M51,27.07H46.54L44.32,30.9l2.22,3.84H51l2.22-3.84Z"/><path class="cls-1" d="M51,36.72H46.54l-2.22,3.84,2.22,3.84H51l2.22-3.84Z"/><path class="cls-1" d="M15.51,17.41H11.08L8.86,21.25l2.22,3.84h4.43l2.22-3.84Z"/><path class="cls-1" d="M15.51,27.07H11.08L8.86,30.9l2.22,3.84h4.43l2.22-3.84Z"/><path class="cls-1" d="M32.15,57.92H29.9l-1.12,1.94,1.12,2h2.25l1.12-2Z"/><path class="cls-1" d="M32.15,38.61H29.9l-1.12,2L29.9,42.5h2.25l1.12-1.94Z"/><path class="cls-1" d="M32.15,29H29.9L28.78,30.9l1.12,2h2.25l1.12-2Z"/><path class="cls-1" d="M32.15,19.31H29.9l-1.12,1.94L29.9,23.2h2.25l1.12-1.95Z"/><path class="cls-1" d="M23.28,24.11H21l-1.13,1.94L21,28h2.24l1.13-1.95Z"/><path class="cls-1" d="M41,53.15H38.77l-1.13,2L38.77,57H41l1.12-1.94Z"/><path class="cls-1" d="M41,33.79H38.77l-1.13,1.94,1.13,2H41l1.12-2Z"/><path class="cls-1" d="M41,24.11H38.77l-1.13,1.94L38.77,28H41l1.12-1.95Z"/><path class="cls-1" d="M49.88,48.27H47.63l-1.12,1.94,1.12,1.95h2.25L51,50.21Z"/><path class="cls-1" d="M58.74,43.47H56.49l-1.12,2,1.12,1.94h2.25l1.12-1.94Z"/><path class="cls-1" d="M58.74,33.79H56.49l-1.12,1.94,1.12,2h2.25l1.12-2Z"/><path class="cls-1" d="M58.74,24.11H56.49l-1.12,1.94L56.49,28h2.25l1.12-1.95Z"/><path class="cls-1" d="M58.74,14.42H56.49l-1.12,2,1.12,1.94h2.25l1.12-1.94Z"/><path class="cls-1" d="M49.88,9.65H47.63L46.51,11.6l1.12,1.94h2.25L51,11.6Z"/><path class="cls-1" d="M41,4.74H38.77l-1.13,2,1.13,1.94H41l1.12-1.94Z"/><path class="cls-1" d="M32.15,0H29.9L28.78,1.94l1.12,2h2.25l1.12-1.95Z"/><path class="cls-1" d="M23.28,4.74H21l-1.13,2L21,8.63h2.24l1.13-1.94Z"/><path class="cls-1" d="M14.42,9.65H12.17L11.05,11.6l1.12,1.94h2.25l1.12-1.94Z"/><path class="cls-1" d="M5.55,14.42H3.31l-1.12,2,1.12,1.94H5.55l1.13-1.94Z"/><path class="cls-1" d="M5.55,33.79H3.31L2.19,35.73l1.12,2H5.55l1.13-2Z"/><path class="cls-1" d="M5.55,43.47H3.31l-1.12,2,1.12,1.94H5.55l1.13-1.94Z"/><path class="cls-1" d="M14.42,48.27H12.17l-1.12,1.94,1.12,1.95h2.25l1.12-1.95Z"/><path class="cls-1" d="M14.42,38.61H12.17l-1.12,2,1.12,1.94h2.25l1.12-1.94Z"/></svg>