<svg id="Layer_1" data-name="Layer 1" xmlns="http://www.w3.org/2000/svg" viewBox="0 0 74.33 76.75"><defs><style>.cls-1{fill:#1b1b20;}</style></defs><path class="cls-1" d="M30.27,39.6H24.76L22,44.37l2.75,4.76h5.51L33,44.37Z"/><path class="cls-1" d="M30.27,51.63H24.76L22,56.39l2.75,4.77h5.51L33,56.39Z"/><path class="cls-1" d="M30.27,63.65H24.76L22,68.42l2.75,4.76h5.51L33,68.42Z"/><path class="cls-1" d="M30.27,15.56H24.76L22,20.32l2.75,4.77h5.51L33,20.32Z"/><path class="cls-1" d="M8.25,27.58H2.75L0,32.35l2.75,4.76h5.5L11,32.35Z"/><path class="cls-1" d="M52.28,51.63h-5.5L44,56.39l2.75,4.77h5.5L55,56.39Z"/><path class="cls-1" d="M52.28,15.56h-5.5L44,20.32l2.75,4.77h5.5L55,20.32Z"/><path class="cls-1" d="M41.27,9.64h-5.5L33,14.4l2.75,4.77h5.5L44,14.4Z"/><path class="cls-1" d="M41.27,57.58h-5.5L33,62.35l2.75,4.76h5.5L44,62.35Z"/><path class="cls-1" d="M63.29,21.62H57.78L55,26.39l2.75,4.76h5.51L66,26.39Z"/><path class="cls-1" d="M63.29,33.61H57.78L55,38.37l2.75,4.77h5.51L66,38.37Z"/><path class="cls-1" d="M63.29,45.59H57.78L55,50.36l2.75,4.77h5.51L66,50.36Z"/><path class="cls-1" d="M19.26,21.62h-5.5L11,26.39l2.75,4.76h5.5L22,26.39Z"/><path class="cls-1" d="M19.26,33.61h-5.5L11,38.37l2.75,4.77h5.5L22,38.37Z"/><path class="cls-1" d="M39.92,71.92H37.13l-1.4,2.41,1.4,2.42h2.79l1.39-2.42Z"/><path class="cls-1" d="M39.92,48H37.13l-1.4,2.41,1.4,2.41h2.79l1.39-2.41Z"/><path class="cls-1" d="M39.92,36H37.13l-1.4,2.41,1.4,2.42h2.79l1.39-2.42Z"/><path class="cls-1" d="M39.92,24H37.13l-1.4,2.42,1.4,2.41h2.79l1.39-2.41Z"/><path class="cls-1" d="M28.91,29.93H26.12l-1.39,2.42,1.39,2.41h2.79l1.39-2.41Z"/><path class="cls-1" d="M50.92,66H48.13l-1.39,2.42,1.39,2.41h2.79l1.4-2.41Z"/><path class="cls-1" d="M50.92,42H48.13l-1.39,2.42,1.39,2.41h2.79l1.4-2.41Z"/><path class="cls-1" d="M50.92,29.93H48.13l-1.39,2.42,1.39,2.41h2.79l1.4-2.41Z"/><path class="cls-1" d="M61.93,59.93H59.14l-1.39,2.42,1.39,2.41h2.79l1.39-2.41Z"/><path class="cls-1" d="M72.94,54H70.15l-1.4,2.41,1.4,2.42h2.79l1.39-2.42Z"/><path class="cls-1" d="M72.94,42H70.15l-1.4,2.42,1.4,2.41h2.79l1.39-2.41Z"/><path class="cls-1" d="M72.94,29.93H70.15l-1.4,2.42,1.4,2.41h2.79l1.39-2.41Z"/><path class="cls-1" d="M72.94,17.91H70.15l-1.4,2.41,1.4,2.42h2.79l1.39-2.42Z"/><path class="cls-1" d="M61.93,12H59.14L57.75,14.4l1.39,2.42h2.79l1.39-2.42Z"/><path class="cls-1" d="M50.92,5.89H48.13L46.74,8.3l1.39,2.41h2.79l1.4-2.41Z"/><path class="cls-1" d="M39.92,0H37.13l-1.4,2.41,1.4,2.42h2.79l1.39-2.42Z"/><path class="cls-1" d="M28.91,5.89H26.12L24.73,8.3l1.39,2.41h2.79L30.3,8.3Z"/><path class="cls-1" d="M17.9,12H15.11L13.72,14.4l1.39,2.42H17.9l1.4-2.42Z"/><path class="cls-1" d="M6.9,17.91H4.11l-1.4,2.41,1.4,2.42H6.9l1.39-2.42Z"/><path class="cls-1" d="M6.9,42H4.11l-1.4,2.42,1.4,2.41H6.9l1.39-2.41Z"/><path class="cls-1" d="M6.9,54H4.11l-1.4,2.41,1.4,2.42H6.9l1.39-2.42Z"/><path class="cls-1" d="M17.9,59.93H15.11l-1.39,2.42,1.39,2.41H17.9l1.4-2.41Z"/><path class="cls-1" d="M17.9,48H15.11l-1.39,2.41,1.39,2.41H17.9l1.4-2.41Z"/></svg>