<svg width="60" height="17" viewBox="0 0 60 17" fill="none" xmlns="http://www.w3.org/2000/svg">
<path d="M8.25017 15.6983C7.3476 15.8598 6.42914 15.9082 5.47904 16.0372L2.58111 7.38637V16.4085C1.67853 16.5053 0.855117 16.6345 0 16.7636V0.236389H2.40703L5.7007 9.61377V0.236389H8.25017V15.6983ZM13.2383 6.28883C14.2202 6.28883 15.7245 6.24039 16.6271 6.24039V8.82271C15.5027 8.82271 14.1885 8.82271 13.2383 8.87114V12.7125C14.7269 12.6157 16.2154 12.4864 17.7197 12.438V14.9234L10.7046 15.4884V0.236389H17.7197V2.81876H13.2383V6.28883ZM27.1417 2.81882H24.513V14.6977C23.6579 14.6977 22.8028 14.6977 21.9795 14.7299V2.81882H19.3509V0.236389H27.1418L27.1417 2.81882ZM31.2588 6.11134H34.7268V8.69365H31.2588V14.5525H28.7725V0.236389H35.8511V2.81876H31.2588V6.11134ZM39.9683 12.2928C41.4093 12.325 42.8661 12.4382 44.2755 12.5188V15.0689C42.0111 14.9235 39.7466 14.7785 37.4347 14.7299V0.236389H39.9683V12.2928ZM46.4132 15.2464C47.2208 15.2949 48.0759 15.3434 48.8993 15.44V0.236389H46.4132V15.2464ZM60 0.236389L56.7854 8.09651L60 16.7636C59.0498 16.6345 58.0997 16.4569 57.1495 16.2955L55.3285 11.5182L53.476 15.9083C52.5574 15.7467 51.6706 15.6983 50.7523 15.5692L54.0143 7.99958L51.0689 0.236389H53.7925L55.4552 4.57801L57.2288 0.236389H60Z" fill="#D81F26"/>
</svg>
