<svg id="Layer_1" data-name="Layer 1" xmlns="http://www.w3.org/2000/svg" xmlns:xlink="http://www.w3.org/1999/xlink" viewBox="0 0 102 30"><defs><style>.cls-1{fill:none;}.cls-2{fill:#fff;}.cls-3{clip-path:url(#clip-path);}.cls-4{fill:#7950dd;}</style><clipPath id="clip-path"><rect class="cls-1" y="9" width="102" height="21"/></clipPath></defs><path class="cls-2" d="M30.9,0h3a2.47,2.47,0,0,1,1.78.68,2.2,2.2,0,0,1,.72,1.67A2.24,2.24,0,0,1,35.64,4a2.49,2.49,0,0,1-1.79.67H32.4V7H30.9Zm2.9,1.35H32.4v2h1.4a1.05,1.05,0,0,0,.75-.29.94.94,0,0,0,.3-.71.92.92,0,0,0-.3-.7A1,1,0,0,0,33.8,1.35Zm4.85,2.28a1.29,1.29,0,0,0-.36.93,1.28,1.28,0,0,0,.36.92,1.15,1.15,0,0,0,1.69,0,1.32,1.32,0,0,0,.35-.92,1.33,1.33,0,0,0-.35-.93,1.13,1.13,0,0,0-1.69,0Zm2.66-.86a2.43,2.43,0,0,1,0,3.57,2.56,2.56,0,0,1-3.64,0,2.43,2.43,0,0,1,0-3.57,2.54,2.54,0,0,1,3.64,0Zm4.48-.67h1l1,2.95.95-2.95h1.4L48.42,7H47.24l-1-2.8L45.34,7H44.16L42.49,2.1h1.4l1,2.95ZM55.43,5H51.88a1.19,1.19,0,0,0,.43.68,1.37,1.37,0,0,0,.87.27,1.83,1.83,0,0,0,.71-.14,1.72,1.72,0,0,0,.46-.31l.14-.15.7.9-.09.09-.27.21a3,3,0,0,1-.42.26,2.69,2.69,0,0,1-.59.2,2.92,2.92,0,0,1-.73.09,2.51,2.51,0,0,1-1.84-.75,2.44,2.44,0,0,1-.77-1.8,2.43,2.43,0,0,1,.76-1.8A2.45,2.45,0,0,1,53,2a2.39,2.39,0,0,1,2.44,2.45ZM53.76,3.41A1.08,1.08,0,0,0,53,3.15a1.18,1.18,0,0,0-.74.25,1.53,1.53,0,0,0-.42.65h2.26A1.14,1.14,0,0,0,53.76,3.41Zm5.68-1.36V3.4a1.64,1.64,0,0,0-.45,0,1.09,1.09,0,0,0-.85.34,1.38,1.38,0,0,0-.3,1V7H56.49V2.1h1.35v.6L58,2.52a2.07,2.07,0,0,1,.47-.29,1.74,1.74,0,0,1,.77-.18Zm5.4,3H61.29a1.13,1.13,0,0,0,.42.68,1.4,1.4,0,0,0,.88.27,1.78,1.78,0,0,0,.7-.14,1.57,1.57,0,0,0,.46-.31l.14-.15.7.9-.09.09-.26.21a3.78,3.78,0,0,1-.43.26,2.59,2.59,0,0,1-.58.2,3.06,3.06,0,0,1-.74.09,2.53,2.53,0,0,1-1.84-.75,2.43,2.43,0,0,1-.76-1.8,2.45,2.45,0,0,1,.75-1.8A2.45,2.45,0,0,1,62.44,2a2.41,2.41,0,0,1,2.45,2.45ZM63.16,3.41a1,1,0,0,0-.72-.26,1.13,1.13,0,0,0-.73.25,1.36,1.36,0,0,0-.42.65h2.25A1.09,1.09,0,0,0,63.16,3.41ZM67.94,2a2,2,0,0,1,1.3.52l.15.18V0h1.35V7H69.39V6.4l-.06.08s-.08.08-.17.17a3.06,3.06,0,0,1-.29.21,2,2,0,0,1-.41.17,1.77,1.77,0,0,1-.52.07,2.22,2.22,0,0,1-1.65-.74,2.52,2.52,0,0,1-.7-1.81,2.54,2.54,0,0,1,.7-1.81A2.22,2.22,0,0,1,67.94,2Zm-.6,3.52a1.11,1.11,0,0,0,.85.38A1.08,1.08,0,0,0,69,5.52a1.35,1.35,0,0,0,.35-1,1.35,1.35,0,0,0-.35-1,1.11,1.11,0,0,0-.85-.38,1.14,1.14,0,0,0-.85.38,1.39,1.39,0,0,0-.35,1A1.39,1.39,0,0,0,67.34,5.52ZM77,2a2.22,2.22,0,0,1,1.65.74,2.58,2.58,0,0,1,.7,1.81,2.53,2.53,0,0,1-.71,1.81A2.19,2.19,0,0,1,77,7.1a1.93,1.93,0,0,1-.79-.17,1.66,1.66,0,0,1-.52-.35l-.14-.18V7H74.19V0h1.36V2.7l.06-.07a.91.91,0,0,1,.17-.16,1.48,1.48,0,0,1,.29-.22,1.92,1.92,0,0,1,.4-.17A1.89,1.89,0,0,1,77,2ZM75.89,5.52a1.11,1.11,0,0,0,.85.38,1.08,1.08,0,0,0,.85-.38,1.35,1.35,0,0,0,.35-1,1.35,1.35,0,0,0-.35-1,1.11,1.11,0,0,0-.85-.38,1.14,1.14,0,0,0-.85.38,1.38,1.38,0,0,0-.34,1A1.38,1.38,0,0,0,75.89,5.52Zm5.6,1.78L81.65,7,79.75,2.1h1.4l1.14,3.25L83.45,2.1h1.39L82.9,7.3c-.45,1.2-1.08,1.8-1.9,1.8a2.12,2.12,0,0,1-.44,0A1.33,1.33,0,0,1,80.24,9l-.09,0V7.75a1,1,0,0,0,.49.1A.85.85,0,0,0,81.49,7.3Z"/><g class="cls-3"><path class="cls-4" d="M18,15.42a1.47,1.47,0,0,0-1.49,0l-3.43,2-2.33,1.33-3.43,2a1.47,1.47,0,0,1-1.49,0L3.08,19.24A1.55,1.55,0,0,1,2.33,18V14.8a1.42,1.42,0,0,1,.75-1.29L5.76,12a1.52,1.52,0,0,1,1.49,0l2.68,1.56a1.52,1.52,0,0,1,.75,1.29v2L13,15.46v-2a1.46,1.46,0,0,0-.75-1.29l-5-2.93a1.52,1.52,0,0,0-1.49,0l-5,2.93A1.44,1.44,0,0,0,0,13.42v5.9a1.42,1.42,0,0,0,.75,1.29L5.8,23.54a1.47,1.47,0,0,0,1.49,0l3.43-2,2.33-1.37,3.43-2a1.47,1.47,0,0,1,1.49,0l2.68,1.55A1.55,1.55,0,0,1,21.4,21v3.15a1.43,1.43,0,0,1-.75,1.29L18,27.05a1.47,1.47,0,0,1-1.49,0L13.8,25.5a1.55,1.55,0,0,1-.75-1.29v-2l-2.33,1.37v2a1.44,1.44,0,0,0,.75,1.29l5,2.93a1.49,1.49,0,0,0,1.5,0l5.05-2.93a1.52,1.52,0,0,0,.75-1.29v-5.9a1.46,1.46,0,0,0-.75-1.29Z"/><path class="cls-2" d="M33.09,28.11v-4.9a3.34,3.34,0,0,0,2.64,1.05c2.88,0,4.83-2,4.83-5.12S38.77,14,36,14a3.51,3.51,0,0,0-2.88,1.24V14.18H30.34V28.11Zm2.31-6.22a2.46,2.46,0,0,1-2.46-2.75,2.47,2.47,0,1,1,4.9,0A2.47,2.47,0,0,1,35.4,21.89Z"/><path class="cls-2" d="M46.82,24.26a5,5,0,0,0,5.28-5.12A5,5,0,0,0,46.82,14a5.12,5.12,0,1,0,0,10.24Zm0-2.37a2.5,2.5,0,0,1-2.5-2.75,2.51,2.51,0,1,1,5,0A2.5,2.5,0,0,1,46.82,21.89Z"/><path class="cls-2" d="M56.53,24.1V9.86H53.77V24.1Z"/><path class="cls-2" d="M64.82,14.17l-2.08,6.4-2.11-6.4H57.81L61.45,24,60,28.11h2.64L64,24.06l3.63-9.89Z"/><path class="cls-2" d="M75.41,15.16A3.5,3.5,0,0,0,72.65,14c-2.92,0-4.69,2-4.69,5.12s1.77,5.12,4.73,5.12a3.35,3.35,0,0,0,2.74-1.17v1.3A1.47,1.47,0,0,1,74,26H69.37v2.14h5c2.27,0,3.78-1.35,3.78-3.42V14.18H75.41Zm-2.29,6.73a2.46,2.46,0,0,1-2.44-2.75,2.47,2.47,0,1,1,4.91,0A2.46,2.46,0,0,1,73.12,21.89Z"/><path class="cls-2" d="M85.14,24.26a5,5,0,0,0,5.28-5.12,5.28,5.28,0,0,0-10.56,0A5,5,0,0,0,85.14,24.26Zm0-2.37a2.5,2.5,0,0,1-2.5-2.75,2.51,2.51,0,1,1,5,0A2.5,2.5,0,0,1,85.14,21.89Z"/><path class="cls-2" d="M94.71,24.1V18.66a2.05,2.05,0,0,1,2.06-2.2,1.92,1.92,0,0,1,1.93,2.07V24.1h2.77V17.92A3.62,3.62,0,0,0,97.74,14a3.35,3.35,0,0,0-3,1.53V14.18H91.93V24.1Z"/></g></svg>