<svg width="51" height="13" viewBox="0 0 51 13" fill="none" xmlns="http://www.w3.org/2000/svg">
<path d="M8.58806 12.6484H0V0.351583H3.26246V9.66425H8.58806V12.6484Z" fill="white"/>
<path d="M13.2343 3.99604C12.5913 4.65919 12.2699 5.49384 12.2699 6.5C12.2699 7.50616 12.5913 8.34367 13.2343 9.01253C13.8773 9.6814 14.6741 10.0158 15.6246 10.0158C16.5751 10.0158 17.369 9.6814 18.0064 9.01253C18.6494 8.34367 18.9709 7.50616 18.9709 6.5C18.9709 5.49384 18.6494 4.65919 18.0064 3.99604C17.369 3.32718 16.5751 2.99274 15.6246 2.99274C14.6741 2.99274 13.8773 3.32718 13.2343 3.99604ZM20.3631 1.92084C21.6658 3.19569 22.3172 4.72208 22.3172 6.5C22.3172 8.27792 21.6658 9.80717 20.3631 11.0877C19.0659 12.3626 17.4836 13 15.6162 13C13.7543 13 12.172 12.3626 10.8693 11.0877C9.57211 9.80717 8.92353 8.27792 8.92353 6.5C8.92353 4.72208 9.57211 3.19569 10.8693 1.92084C12.172 0.640281 13.7543 0 15.6162 0C17.4836 0 19.0659 0.640281 20.3631 1.92084Z" fill="white"/>
<path d="M30.4021 13C28.5346 13 26.9495 12.3626 25.6468 11.0877C24.3496 9.80717 23.701 8.27792 23.701 6.5C23.701 4.72208 24.3496 3.19569 25.6468 1.92084C26.9495 0.640281 28.5346 0 30.4021 0C31.0451 0 31.6573 0.085752 32.2388 0.257256C32.8203 0.42876 33.2983 0.634565 33.6729 0.87467C34.0531 1.11478 34.383 1.35488 34.6626 1.59499C34.9477 1.83509 35.1518 2.0409 35.2748 2.2124L35.4677 2.46108L33.4884 4.57058C33.4549 4.52485 33.4101 4.46768 33.3542 4.39908C33.2983 4.32476 33.1697 4.19899 32.9684 4.02177C32.7671 3.83883 32.5575 3.67876 32.3394 3.54156C32.1214 3.39864 31.8334 3.27287 31.4756 3.16425C31.1233 3.04991 30.7655 2.99274 30.4021 2.99274C29.418 2.99274 28.5989 3.32718 27.9447 3.99604C27.2906 4.65919 26.9635 5.49384 26.9635 6.5C26.9635 7.50616 27.2906 8.34367 27.9447 9.01253C28.5989 9.6814 29.418 10.0158 30.4021 10.0158C30.8158 10.0158 31.1932 9.95295 31.5343 9.82718C31.8753 9.69569 32.1158 9.55849 32.2556 9.41557L32.4568 9.22691V7.90633H30.5698V5.79683H35.7277V10.5389C35.6829 10.6075 35.6075 10.699 35.5012 10.8133C35.395 10.9219 35.1741 11.1192 34.8387 11.405C34.5032 11.6851 34.1426 11.9338 33.7568 12.1511C33.371 12.3683 32.8762 12.5627 32.2723 12.7342C31.6685 12.9114 31.0451 13 30.4021 13Z" fill="white"/>
<path d="M41.9171 3.99604C41.2741 4.65919 40.9526 5.49384 40.9526 6.5C40.9526 7.50616 41.2741 8.34367 41.9171 9.01253C42.5601 9.6814 43.3568 10.0158 44.3074 10.0158C45.2579 10.0158 46.0518 9.6814 46.6892 9.01253C47.3322 8.34367 47.6537 7.50616 47.6537 6.5C47.6537 5.49384 47.3322 4.65919 46.6892 3.99604C46.0518 3.32718 45.2579 2.99274 44.3074 2.99274C43.3568 2.99274 42.5601 3.32718 41.9171 3.99604ZM49.0459 1.92084C50.3486 3.19569 51 4.72208 51 6.5C51 8.27792 50.3486 9.80717 49.0459 11.0877C47.7487 12.3626 46.1664 13 44.299 13C42.4371 13 40.8548 12.3626 39.552 11.0877C38.2549 9.80717 37.6063 8.27792 37.6063 6.5C37.6063 4.72208 38.2549 3.19569 39.552 1.92084C40.8548 0.640281 42.4371 0 44.299 0C46.1664 0 47.7487 0.640281 49.0459 1.92084Z" fill="white"/>
</svg>
