<svg id="Layer_1" data-name="Layer 1" xmlns="http://www.w3.org/2000/svg" viewBox="0 0 338.12 83.76"><defs><style>.cls-1{fill:#fff;}</style></defs><path class="cls-1" d="M108.38,46.42a2.66,2.66,0,0,0-1.46-2.34,14.25,14.25,0,0,0-3.56-1.48c-1.4-.4-2.79-.87-4.18-1.41a8.3,8.3,0,0,1-3.54-2.66,7.3,7.3,0,0,1-1.47-4.69,7.69,7.69,0,0,1,2.8-6,10.57,10.57,0,0,1,7.29-2.48,13.54,13.54,0,0,1,3.41.41,12.25,12.25,0,0,1,2.7,1,14.51,14.51,0,0,1,1.85,1.13,6,6,0,0,1,1.14,1l.36.4L110,33.21c-.16-.19-.38-.42-.67-.7a8.21,8.21,0,0,0-1.82-1.09,6.27,6.27,0,0,0-2.85-.69,4.26,4.26,0,0,0-2.85.91,2.76,2.76,0,0,0-1.07,2.2,2.61,2.61,0,0,0,1.46,2.32,14.66,14.66,0,0,0,3.54,1.48c1.37.4,2.77.87,4.17,1.41a8.29,8.29,0,0,1,3.57,2.67A7.31,7.31,0,0,1,115,46.41,8.29,8.29,0,0,1,112.07,53c-1.93,1.7-4.6,2.54-8,2.54a15,15,0,0,1-3.89-.49,13.22,13.22,0,0,1-3.1-1.18A20,20,0,0,1,95,52.44a8.38,8.38,0,0,1-1.33-1.19l-.47-.5L96.87,47c.19.22.46.49.8.84A9.78,9.78,0,0,0,100,49.26a8.31,8.31,0,0,0,3.7.86,5.33,5.33,0,0,0,3.48-1,3.39,3.39,0,0,0,1.25-2.66Z"/><path class="cls-1" d="M135.72,39.2H147V49.92c-.11.14-.28.33-.51.59A15.13,15.13,0,0,1,145,51.86a17.21,17.21,0,0,1-2.53,1.7,17.9,17.9,0,0,1-7.95,1.94,15.31,15.31,0,0,1-11.12-4.42,14.8,14.8,0,0,1,0-21.31,15.23,15.23,0,0,1,11.12-4.42,15.38,15.38,0,0,1,4.32.6,12.56,12.56,0,0,1,3.37,1.44,22.65,22.65,0,0,1,2.33,1.69A9.33,9.33,0,0,1,146,30.51l.47.61-3.92,3.93-.33-.46a11.12,11.12,0,0,0-2.54-2.23,10.49,10.49,0,0,0-2.28-1,9.27,9.27,0,0,0-2.87-.46,9.28,9.28,0,0,0-9.46,9.5,9.28,9.28,0,0,0,9.46,9.49,10.27,10.27,0,0,0,3.52-.57,6.9,6.9,0,0,0,2.23-1.16l.62-.52V43.73h-5.14Z"/><path class="cls-1" d="M179.11,48.07H168l-2.47,6.8h-6.59L170.26,26h6.57l11.34,28.9h-6.59ZM177,42.7l-3.49-9.49L170,42.7Z"/><path class="cls-1" d="M193,52.13a10,10,0,0,1,0-14.74A10.61,10.61,0,0,1,196.55,35a10.37,10.37,0,0,1,4.15-.8,10.11,10.11,0,0,1,3,.43,9,9,0,0,1,2.31,1,13.46,13.46,0,0,1,1.61,1.2,6.46,6.46,0,0,1,1,1.06l.3.43-3.5,3.5a6.61,6.61,0,0,0-.53-.74A6.65,6.65,0,0,0,203.3,40a5,5,0,0,0-2.6-.73,5,5,0,0,0-3.77,1.63,5.7,5.7,0,0,0,0,7.88A5.2,5.2,0,0,0,198.64,50a5.12,5.12,0,0,0,2.05.42,5.38,5.38,0,0,0,2.6-.67,6.32,6.32,0,0,0,1.8-1.33l.54-.69,3.3,3.51-.34.46a8.16,8.16,0,0,1-1,1A9.83,9.83,0,0,1,206,53.87a10.65,10.65,0,0,1-2.3,1,9.71,9.71,0,0,1-3,.46A10.68,10.68,0,0,1,193,52.13Z"/><path class="cls-1" d="M223.75,54.88V52.83c-.16.18-.38.42-.67.69a7.68,7.68,0,0,1-1.88,1.09,7,7,0,0,1-3,.68,7.14,7.14,0,0,1-4.91-1.69,5.36,5.36,0,0,1-1.4-1.83,5.26,5.26,0,0,1-.48-2.25,5.66,5.66,0,0,1,.37-2.23A6,6,0,0,1,213,45.38a7.85,7.85,0,0,1,4.38-2.16l6.39-1.15a2.64,2.64,0,0,0-.22-1.14,2.57,2.57,0,0,0-.7-.93,3.79,3.79,0,0,0-2.57-.81,5.77,5.77,0,0,0-2.49.52,4.46,4.46,0,0,0-1.59,1l-.46.49-3.08-3.08.33-.44a9.28,9.28,0,0,1,.95-.93,10.3,10.3,0,0,1,1.59-1.19,10.54,10.54,0,0,1,2.28-.94,9.64,9.64,0,0,1,2.87-.43,8.71,8.71,0,0,1,6.23,2.28,7.82,7.82,0,0,1,1.82,2.62,7.5,7.5,0,0,1,.59,3.14v12.6Zm-4.13-4.14a4,4,0,0,0,1.64-.28,3.94,3.94,0,0,0,1.37-.92,4.73,4.73,0,0,0,1.12-3.34v-.63l-4.53.83c-1.51.24-2.27,1-2.27,2.28s.9,2.07,2.68,2.07Z"/><path class="cls-1" d="M243.1,34.24a7.32,7.32,0,0,1,3.22.72,6.92,6.92,0,0,1,2.12,1.42l.63.74V26h5.53V54.88h-5.54V52.4a2.48,2.48,0,0,1-.25.3c-.12.13-.36.35-.73.69a8.51,8.51,0,0,1-1.19.88,7.39,7.39,0,0,1-1.67.7,7.3,7.3,0,0,1-2.13.29,9,9,0,0,1-6.79-3,10.65,10.65,0,0,1-2.9-7.44,10.5,10.5,0,0,1,2.88-7.47A9.12,9.12,0,0,1,243.1,34.24Zm-2.47,14.53A4.63,4.63,0,0,0,246,49.93a4.62,4.62,0,0,0,1.58-1.16,6.26,6.26,0,0,0,0-8A4.76,4.76,0,0,0,246,39.6a4.89,4.89,0,0,0-1.92-.4,4.81,4.81,0,0,0-1.91.4,4.76,4.76,0,0,0-1.58,1.16,5.62,5.62,0,0,0-1.45,4,5.74,5.74,0,0,0,1.43,4Z"/><path class="cls-1" d="M279.27,46.62H264.66a4.67,4.67,0,0,0,1.75,2.79,5.61,5.61,0,0,0,3.6,1.14,6.76,6.76,0,0,0,2.9-.62,5.6,5.6,0,0,0,1.88-1.24l.59-.62,2.87,3.71-.36.36a11.54,11.54,0,0,1-1.09.87,14.05,14.05,0,0,1-1.74,1.08,12,12,0,0,1-2.4.83,12.54,12.54,0,0,1-3.05.37,10.48,10.48,0,0,1-4.1-.77,11,11,0,0,1-5.79-5.72,10.75,10.75,0,0,1-.82-4,10.5,10.5,0,0,1,.8-4A10.92,10.92,0,0,1,265.38,35a10,10,0,0,1,4-.78,9.7,9.7,0,0,1,7.19,2.89,9.84,9.84,0,0,1,2.88,7.23ZM272.39,40a4.45,4.45,0,0,0-3-1,4.58,4.58,0,0,0-3,1,5.58,5.58,0,0,0-1.74,2.69h9.27A4.6,4.6,0,0,0,272.39,40Z"/><path class="cls-1" d="M308.69,54.88V43.73a4.54,4.54,0,0,0-.93-3,2.91,2.91,0,0,0-1.05-.82,2.94,2.94,0,0,0-1.31-.28,3.32,3.32,0,0,0-2.65,1.26,5.31,5.31,0,0,0-1,3.5V54.88h-5.55V43.73a4.49,4.49,0,0,0-.94-3,2.91,2.91,0,0,0-1.05-.82,3,3,0,0,0-1.31-.28,3.25,3.25,0,0,0-1.47.32,3.37,3.37,0,0,0-1.18.94,5.32,5.32,0,0,0-1.06,3.5V54.88h-5.54V34.64h5.54v2.48a6.06,6.06,0,0,1,.63-.79A8.4,8.4,0,0,1,291.57,35a5.81,5.81,0,0,1,2.95-.8,6.58,6.58,0,0,1,2.24.37,5.86,5.86,0,0,1,1.66.87,7.93,7.93,0,0,1,1.08,1,3.55,3.55,0,0,1,.61.88l.16.37.27-.38a8.23,8.23,0,0,1,.83-.84,9.2,9.2,0,0,1,1.35-1.07,7.89,7.89,0,0,1,1.9-.85,8.07,8.07,0,0,1,2.44-.37,6.61,6.61,0,0,1,5.28,2.25q1.94,2.24,1.94,6.62V54.87Z"/><path class="cls-1" d="M324.32,56.11l.62-1.43-7.8-20h5.77l4.72,13.43,4.74-13.43h5.75l-8,21.47q-2.76,7.44-7.82,7.44a9.77,9.77,0,0,1-1.79-.16,8.23,8.23,0,0,1-1.3-.32l-.4-.15V58a4.42,4.42,0,0,0,2.06.41A3.5,3.5,0,0,0,324.32,56.11Z"/><path class="cls-1" d="M78.46,29.18H72.63l-2.92,5.07,2.92,5.07h5.83l2.92-5.07Z"/><path class="cls-1" d="M66.84,61H61l-2.92,5.06L61,71.13h5.83l2.92-5.07Z"/><path class="cls-1" d="M66.84,48.3H61l-2.92,5.07L61,58.44h5.83l2.92-5.07Z"/><path class="cls-1" d="M66.84,35.61H61l-2.92,5.07L61,45.74h5.83l2.92-5.06Z"/><path class="cls-1" d="M66.84,22.91H61L58.09,28,61,33.05h5.83L69.76,28Z"/><path class="cls-1" d="M55.22,16.45H49.39l-2.92,5.07,2.92,5.07h5.83l2.92-5.07Z"/><path class="cls-1" d="M55.22,41.92H49.39L46.47,47l2.92,5.06h5.83L58.14,47Z"/><path class="cls-1" d="M55.22,67.38H49.39l-2.92,5.07,2.92,5.07h5.83l2.92-5.07Z"/><path class="cls-1" d="M43.6,73.62H37.77l-2.92,5.07,2.92,5.07H43.6l2.92-5.07Z"/><path class="cls-1" d="M43.6,48.3H37.77l-2.92,5.07,2.92,5.07H43.6l2.92-5.07Z"/><path class="cls-1" d="M43.6,10.22H37.77l-2.92,5.07,2.92,5.06H43.6l2.92-5.06Z"/><path class="cls-1" d="M32,16.45H26.15l-2.91,5.07,2.91,5.07H32l2.91-5.07Z"/><path class="cls-1" d="M32,41.92H26.15L23.24,47l2.91,5.06H32L34.9,47Z"/><path class="cls-1" d="M32,67.38H26.2l-2.91,5.07,2.91,5.07H32L35,72.45Z"/><path class="cls-1" d="M20.37,61H14.53l-2.91,5.06,2.91,5.07h5.84l2.92-5.07Z"/><path class="cls-1" d="M20.37,48.13H14.53L11.62,53.2l2.91,5.07h5.84l2.92-5.07Z"/><path class="cls-1" d="M20.37,35.61H14.53l-2.91,5.07,2.91,5.06h5.84l2.92-5.06Z"/><path class="cls-1" d="M20.37,22.91H14.53L11.62,28l2.91,5.07h5.84L23.29,28Z"/><path class="cls-1" d="M8.75,29.18H2.92L0,34.25l2.92,5.07H8.75l2.92-5.07Z"/><path class="cls-1" d="M42.16,38.08H39.22l-1.47,2.56,1.47,2.56h2.94l1.47-2.56Z"/><path class="cls-1" d="M42.16,25.39H39.22L37.75,28l1.47,2.55h2.94L43.63,28Z"/><path class="cls-1" d="M30.54,31.7H27.6l-1.47,2.56,1.47,2.55h2.94L32,34.26Z"/><path class="cls-1" d="M30.54,57.17H27.6l-1.47,2.55,1.47,2.56h2.94L32,59.72Z"/><path class="cls-1" d="M53.78,57.17h-3l-1.47,2.55,1.47,2.56h3l1.47-2.56Z"/><path class="cls-1" d="M53.78,31.7h-3l-1.47,2.56,1.47,2.55h3l1.47-2.55Z"/><path class="cls-1" d="M77,57.17H74.07L72.6,59.72l1.47,2.56H77l1.47-2.56Z"/><path class="cls-1" d="M77,44.43H74.07L72.6,47l1.47,2.55H77L78.48,47Z"/><path class="cls-1" d="M77,19H74.07L72.6,21.52l1.47,2.56H77l1.47-2.56Z"/><path class="cls-1" d="M65.4,12.69h-3L61,15.25l1.47,2.56h3l1.47-2.56Z"/><path class="cls-1" d="M53.78,6.23h-3L49.36,8.79l1.47,2.56h3l1.47-2.56Z"/><path class="cls-1" d="M42.16,0H39.22L37.75,2.56l1.47,2.55h2.94l1.47-2.55Z"/><path class="cls-1" d="M30.54,6.23H27.6L26.13,8.79l1.47,2.56h2.94L32,8.79Z"/><path class="cls-1" d="M18.92,12.69H16l-1.47,2.56L16,17.81h2.94l1.48-2.56Z"/><path class="cls-1" d="M7.31,19H4.36L2.89,21.52l1.47,2.56H7.31l1.47-2.56Z"/><path class="cls-1" d="M7.31,44.43H4.36L2.89,47l1.47,2.56H7.31L8.78,47Z"/><path class="cls-1" d="M7.31,57.17H4.36L2.89,59.72l1.47,2.56H7.31l1.47-2.56Z"/><path class="cls-1" d="M42.16,63.47H39.22L37.75,66l1.47,2.56h2.94L43.63,66Z"/></svg>