<svg width="60" height="18" viewBox="0 0 60 18" fill="none" xmlns="http://www.w3.org/2000/svg">
<path fill-rule="evenodd" clip-rule="evenodd" d="M37.0376 13.9033C33.6403 16.3745 28.7162 17.6929 24.4766 17.6929C18.5319 17.6929 13.1802 15.5231 9.13139 11.9144C8.81336 11.6305 9.09836 11.2438 9.48006 11.4648C13.8495 13.9737 19.2521 15.4829 24.8328 15.4829C28.5966 15.4829 32.7369 14.7145 36.544 13.1198C37.119 12.8787 37.6 13.4915 37.0376 13.9033Z" fill="#FF9900"/>
<path fill-rule="evenodd" clip-rule="evenodd" d="M38.45 12.3087C38.0174 11.7612 35.5794 12.05 34.4852 12.1781C34.1518 12.2183 34.101 11.9319 34.4012 11.726C36.3429 10.3775 39.529 10.7667 39.9005 11.2188C40.272 11.6733 39.8038 14.825 37.9792 16.3292C37.6993 16.5603 37.432 16.4372 37.5567 16.1308C37.9665 15.1213 38.8852 12.8587 38.45 12.3087Z" fill="#FF9900"/>
<path fill-rule="evenodd" clip-rule="evenodd" d="M34.5615 2.20561V0.894722C34.5615 0.696318 34.7142 0.563222 34.8974 0.563222H40.8446C41.0355 0.563222 41.1882 0.698799 41.1882 0.894722V2.01724C41.1856 2.20561 41.0253 2.45172 40.7403 2.84097L37.6586 7.18301C38.8037 7.15543 40.0125 7.32366 41.0508 7.90128C41.2849 8.03183 41.3485 8.22274 41.3663 8.41105V9.80985C41.3663 10.0007 41.1525 10.2242 40.9286 10.1087C39.0989 9.16197 36.6686 9.05899 34.6455 10.1187C34.4394 10.2293 34.2231 10.0083 34.2231 9.81741V8.48893C34.2231 8.27547 34.2256 7.91132 34.4419 7.58737L38.0123 2.53462H34.905C34.7142 2.53462 34.5615 2.40153 34.5615 2.20561ZM12.8672 10.3849H11.0578C10.8848 10.3724 10.7474 10.2443 10.7346 10.0811V0.917337C10.7346 0.733991 10.8899 0.588318 11.0832 0.588318H12.7704C12.9461 0.595818 13.086 0.728972 13.0988 0.894664V2.09264H13.1319C13.5721 0.934933 14.3991 0.395049 15.5138 0.395049C16.6462 0.395049 17.3537 0.934933 17.8626 2.09264C18.3003 0.934933 19.2953 0.395049 20.3616 0.395049C21.1199 0.395049 21.9496 0.703933 22.4559 1.39705C23.0285 2.16799 22.9115 3.28803 22.9115 4.26995L22.9089 10.0535C22.9089 10.2368 22.7537 10.385 22.5603 10.385H20.7535C20.5728 10.3725 20.4277 10.2293 20.4277 10.0535V5.1966C20.4277 4.80984 20.4634 3.84545 20.3769 3.47887C20.242 2.86359 19.8374 2.69028 19.3131 2.69028C18.8754 2.69028 18.4174 2.97909 18.2316 3.4412C18.0458 3.90332 18.0637 4.67674 18.0637 5.1966V10.0534C18.0637 10.2368 17.9084 10.3849 17.715 10.3849H15.9082C15.725 10.3724 15.5824 10.2293 15.5824 10.0534L15.5799 5.1966C15.5799 4.17447 15.7504 2.67026 14.4653 2.67026C13.1649 2.67026 13.2158 4.1368 13.2158 5.1966V10.0534C13.2158 10.2368 13.0606 10.3849 12.8672 10.3849ZM46.3083 0.394991C48.993 0.394991 50.4462 2.6702 50.4462 5.56324C50.4462 8.35832 48.8404 10.5758 46.3083 10.5758C43.6719 10.5758 42.2366 8.30057 42.2366 5.46528C42.2366 2.61245 43.6897 0.394991 46.3083 0.394991ZM46.3236 2.26589C44.9901 2.26589 44.9061 4.05897 44.9061 5.17647C44.9061 6.29657 44.8883 8.68728 46.3083 8.68728C47.7105 8.68728 47.7766 6.75862 47.7766 5.58332C47.7766 4.80984 47.7435 3.88566 47.5069 3.15239C47.3033 2.51449 46.8987 2.26589 46.3236 2.26589H46.3236ZM53.9274 10.3849H52.1257C51.9451 10.3724 51.8 10.2293 51.8 10.0534L51.7974 0.887164C51.8126 0.718933 51.9629 0.588318 52.146 0.588318H53.8231C53.9809 0.595818 54.1106 0.701395 54.1463 0.844472V2.24582H54.1793C54.6858 0.992683 55.3957 0.394991 56.6452 0.394991C57.457 0.394991 58.2485 0.683741 58.7575 1.47482C59.2308 2.20809 59.2308 3.4412 59.2308 4.3277V10.0961C59.2104 10.2569 59.0603 10.3849 58.8822 10.3849H57.0677C56.9022 10.3724 56.7649 10.2518 56.747 10.0961V5.11872C56.747 4.11672 56.8641 2.65007 55.6146 2.65007C55.1744 2.65007 54.7697 2.94141 54.5688 3.38339C54.3142 3.94347 54.2811 4.50095 54.2811 5.11878V10.0534C54.2786 10.2368 54.1208 10.3849 53.9274 10.3849ZM29.8206 6.00776C29.8206 6.70335 29.8384 7.28351 29.4821 7.90122C29.1946 8.40355 28.7365 8.71237 28.2301 8.71237C27.5354 8.71237 27.1282 8.19008 27.1282 7.41909C27.1282 5.89722 28.51 5.62099 29.8206 5.62099V6.00776ZM31.6452 10.3598C31.5256 10.4653 31.3526 10.4729 31.2177 10.4025C30.6171 9.9103 30.5077 9.68178 30.1794 9.21216C29.1869 10.2117 28.482 10.5105 27.1969 10.5105C25.6726 10.5105 24.4892 9.58382 24.4892 7.72803C24.4892 6.27897 25.2832 5.29203 26.4182 4.80984C27.4005 4.38291 28.7721 4.30757 29.8206 4.18953V3.95853C29.8206 3.53409 29.8537 3.03182 29.5992 2.66518C29.3804 2.33622 28.9579 2.20059 28.5838 2.20059C27.8942 2.20059 27.2809 2.54962 27.1308 3.27291C27.1002 3.43364 26.9806 3.59184 26.8152 3.59939L25.0618 3.41357C24.9143 3.38091 24.7488 3.26287 24.7921 3.03937C25.1942 0.939952 27.118 0.307068 28.8384 0.307068C29.7189 0.307068 30.8691 0.538126 31.5638 1.19611C32.4443 2.00726 32.3603 3.08957 32.3603 4.26741V7.04991C32.3603 7.88622 32.7116 8.2528 33.0423 8.70487C33.1569 8.8656 33.1823 9.05899 33.0347 9.17951C32.6657 9.48337 32.0091 10.0484 31.6478 10.3649L31.6453 10.3598H31.6452ZM6.10057 6.00776C6.10057 6.70335 6.1184 7.28351 5.76208 7.90122C5.47456 8.40355 5.01903 8.71237 4.51006 8.71237C3.81536 8.71237 3.41069 8.19008 3.41069 7.41909C3.41069 5.89722 4.79255 5.62099 6.10057 5.62099V6.00776ZM7.92515 10.3598C7.8056 10.4653 7.63255 10.4729 7.49768 10.4025C6.89711 9.9103 6.79018 9.68178 6.4594 9.21216C5.4669 10.2117 4.7646 10.5105 3.47687 10.5105C1.95512 10.5105 0.769226 9.58382 0.769226 7.72803C0.769226 6.27897 1.56576 5.29203 2.69816 4.80984C3.68049 4.38291 5.05212 4.30757 6.10057 4.18953V3.95853C6.10057 3.53409 6.13366 3.03182 5.88169 2.66518C5.66029 2.33622 5.23791 2.20059 4.86633 2.20059C4.17672 2.20059 3.56088 2.54962 3.41069 3.27291C3.38018 3.43364 3.26056 3.59184 3.09769 3.59939L1.3418 3.41357C1.19418 3.38091 1.03137 3.26287 1.07206 3.03937C1.47667 0.939952 3.39801 0.307068 5.1183 0.307068C5.99873 0.307068 7.14902 0.538126 7.84377 1.19611C8.72421 2.00726 8.64025 3.08957 8.64025 4.26741V7.04991C8.64025 7.88622 8.99143 8.2528 9.32227 8.70487C9.43937 8.8656 9.4648 9.05899 9.31718 9.17951C8.94817 9.48337 8.29165 10.0484 7.9303 10.3649L7.92521 10.3598" fill="white"/>
</svg>
