<svg id="Layer_1" data-name="Layer 1" xmlns="http://www.w3.org/2000/svg" viewBox="0 0 88 62"><defs><style>.cls-1{fill:#4e5199;}</style></defs><path class="cls-1" d="M76.48,41.6q0,10.24-4.64,15-4.49,4.63-14.08,4.64Q43.19,61.28,43.2,47q0-24.16,11.52-35.52Q66.41,0,87.68,0L85.76,11.52q-5.76,0-13.44,5a19.67,19.67,0,0,0-9.12,13.6Q76.47,30.08,76.48,41.6Zm-43.2,0q0,10.24-4.64,15-4.49,4.63-14.08,4.64Q0,61.28,0,47,0,22.88,11.52,11.52,23.21,0,44.48,0L42.56,11.52q-5.76,0-13.44,5A19.67,19.67,0,0,0,20,30.08Q33.28,30.08,33.28,41.6Z"/></svg>