<svg width="20" height="20" viewBox="0 0 20 20" fill="none" xmlns="http://www.w3.org/2000/svg">
<path d="M0 8C0 4.22876 0 2.34315 1.17157 1.17157C2.34315 0 4.22876 0 8 0H12C15.7712 0 17.6569 0 18.8284 1.17157C20 2.34315 20 4.22876 20 8V12C20 15.7712 20 17.6569 18.8284 18.8284C17.6569 20 15.7712 20 12 20H8C4.22876 20 2.34315 20 1.17157 18.8284C0 17.6569 0 15.7712 0 12V8Z" fill="white"/>
<path d="M0 13.5713H20V15.9999C20 18.209 18.2091 19.9999 16 19.9999H4C1.79086 19.9999 0 18.209 0 15.9999V13.5713Z" fill="#FF6060"/>
<rect y="7.14307" width="20" height="6.42857" fill="#4F82E4"/>
</svg>
