<svg id="Layer_1" data-name="Layer 1" xmlns="http://www.w3.org/2000/svg" viewBox="0 0 187.42 51.67"><defs><style>.cls-1{fill:#fff;}</style></defs><path class="cls-1" d="M68.92,29.49A1.68,1.68,0,0,0,68,28a8.93,8.93,0,0,0-2.26-.94c-.89-.25-1.77-.55-2.65-.89a5.21,5.21,0,0,1-2.25-1.68,4.57,4.57,0,0,1-.93-3,4.89,4.89,0,0,1,1.77-3.79,6.78,6.78,0,0,1,4.63-1.57,8.7,8.7,0,0,1,2.16.27,7.5,7.5,0,0,1,1.72.61,9.84,9.84,0,0,1,1.17.71,3.62,3.62,0,0,1,.72.63l.23.26L70,21.13c-.1-.12-.24-.26-.42-.44A5.71,5.71,0,0,0,68.39,20a4.05,4.05,0,0,0-1.81-.43,2.72,2.72,0,0,0-1.8.57,1.64,1.64,0,0,0-.5.61,1.78,1.78,0,0,0-.18.78A1.65,1.65,0,0,0,65,23a9.58,9.58,0,0,0,2.24.94c.88.25,1.76.55,2.65.89a5.29,5.29,0,0,1,2.27,1.69,4.74,4.74,0,0,1,.93,3,5.24,5.24,0,0,1-1.85,4.14,7.5,7.5,0,0,1-5.08,1.61,10.32,10.32,0,0,1-2.47-.31,8.62,8.62,0,0,1-2-.75,11.29,11.29,0,0,1-1.36-.88,5,5,0,0,1-.84-.75l-.3-.32,2.36-2.35c.12.14.29.31.51.53a5.73,5.73,0,0,0,1.45.87,5.29,5.29,0,0,0,2.34.55,3.4,3.4,0,0,0,2.22-.66,2.16,2.16,0,0,0,.59-.75A2,2,0,0,0,68.92,29.49Z"/><path class="cls-1" d="M86.28,24.92h7.18V31.7l-.33.38a8.78,8.78,0,0,1-1,.85A10.62,10.62,0,0,1,90.55,34a11.47,11.47,0,0,1-5,1.24,9.76,9.76,0,0,1-7.06-2.8,9.35,9.35,0,0,1,0-13.48,10.26,10.26,0,0,1,9.8-2.41,8.12,8.12,0,0,1,2.14.91,15.44,15.44,0,0,1,1.48,1.07,5.66,5.66,0,0,1,.92.91l.3.38-2.49,2.49L90.38,22a7.27,7.27,0,0,0-1.61-1.42A6.88,6.88,0,0,0,87.32,20,5.92,5.92,0,0,0,79.5,25.7a5.88,5.88,0,0,0,6,6,6.48,6.48,0,0,0,2.23-.36,4.44,4.44,0,0,0,1.42-.73l.39-.33V27.79H86.28Z"/><path class="cls-1" d="M112,16.17a9.8,9.8,0,0,1,2.74.38,8.2,8.2,0,0,1,2.13.91,14.28,14.28,0,0,1,1.48,1.07,5.66,5.66,0,0,1,.92.91l.3.38-2.49,2.49-.21-.29a4.47,4.47,0,0,0-.6-.63,6.39,6.39,0,0,0-1-.79,7,7,0,0,0-1.44-.62,6,6,0,0,0-1.83-.29,5.88,5.88,0,0,0-6,6,5.88,5.88,0,0,0,6,6,6.49,6.49,0,0,0,1.91-.27,6.32,6.32,0,0,0,1.51-.65,8.77,8.77,0,0,0,1-.76,3.44,3.44,0,0,0,.66-.66l.21-.26,2.37,2.48c-.1.13-.2.27-.31.39a9.67,9.67,0,0,1-.93.88A10.36,10.36,0,0,1,116.91,34a10.07,10.07,0,0,1-2.16.87,9.6,9.6,0,0,1-2.76.4,9.72,9.72,0,0,1-7.06-2.8,9.34,9.34,0,0,1,0-13.47A9.76,9.76,0,0,1,112,16.17Z"/><path class="cls-1" d="M129.09,34.84v-1.3c-.11.12-.25.27-.43.44a5.35,5.35,0,0,1-1.19.69,4.82,4.82,0,0,1-5-.64,3.33,3.33,0,0,1-1.2-2.58,3.6,3.6,0,0,1,1-2.62A5,5,0,0,1,125,27.47l4-.73a1.62,1.62,0,0,0-.59-1.31,2.39,2.39,0,0,0-1.63-.51,3.76,3.76,0,0,0-1.58.32,3,3,0,0,0-1,.67l-.29.31-2-1.95.21-.27a6.67,6.67,0,0,1,.6-.59,6.23,6.23,0,0,1,1-.75,6.74,6.74,0,0,1,1.44-.6,6.22,6.22,0,0,1,1.82-.27,5.52,5.52,0,0,1,4,1.45,4.79,4.79,0,0,1,1.53,3.64v8Zm-2.62-2.61a2.51,2.51,0,0,0,1.91-.76,3,3,0,0,0,.71-2.11V29l-2.87.53c-1,.15-1.45.63-1.45,1.44S125.34,32.23,126.47,32.23Z"/><path class="cls-1" d="M143.3,35.1a4.68,4.68,0,0,1-2-.46,4.23,4.23,0,0,1-1.35-.9l-.39-.47v7H136V22h3.52v1.57a1,1,0,0,1,.16-.19c.07-.08.22-.22.45-.43a5.13,5.13,0,0,1,.76-.56,5,5,0,0,1,2.41-.65,5.76,5.76,0,0,1,4.32,1.94,6.59,6.59,0,0,1,1.83,4.72,6.59,6.59,0,0,1-1.83,4.72A5.76,5.76,0,0,1,143.3,35.1Zm1.58-9.19a3,3,0,0,0-2.22-1,3,3,0,0,0-1.22.26,3.15,3.15,0,0,0-1,.73,3.58,3.58,0,0,0-.92,2.53,3.62,3.62,0,0,0,.92,2.54,3,3,0,0,0,1,.73,3,3,0,0,0,1.22.26,3,3,0,0,0,2.22-1,3.61,3.61,0,0,0,.91-2.54A3.57,3.57,0,0,0,144.88,25.91Z"/><path class="cls-1" d="M155.4,17a2.07,2.07,0,0,1,0,2.85,2.14,2.14,0,0,1-1.53.53,2,2,0,0,1-1.42-.53,1.93,1.93,0,0,1-.52-1.43,1.91,1.91,0,0,1,.53-1.42,2,2,0,0,1,1.42-.53A2.13,2.13,0,0,1,155.4,17Zm.31,5.08v12.8h-3.53V22Z"/><path class="cls-1" d="M160.8,20.61V18.26h3.13v4h2.61v3.13h-2.61v5.09a1.38,1.38,0,0,0,.12.56,1.23,1.23,0,0,0,.33.46,1.42,1.42,0,0,0,.51.32,1.55,1.55,0,0,0,.6.1,3,3,0,0,0,.67-.07,2.13,2.13,0,0,0,.49-.15l.15-.05v3a6.28,6.28,0,0,1-2.35.39q-4,0-4-4.44V25.44h-2.22V22.31h1.18a1.24,1.24,0,0,0,.56-.13,1.31,1.31,0,0,0,.46-.35A1.75,1.75,0,0,0,160.8,20.61Z"/><path class="cls-1" d="M176.85,34.84v-1.3a5.93,5.93,0,0,1-.43.44,4.95,4.95,0,0,1-6.21.05,3.39,3.39,0,0,1-1.2-2.58,3.64,3.64,0,0,1,1-2.62,5,5,0,0,1,2.78-1.36l4-.73a1.63,1.63,0,0,0-.14-.72,1.61,1.61,0,0,0-.44-.59,2.41,2.41,0,0,0-1.63-.51,3.77,3.77,0,0,0-1.59.32,2.92,2.92,0,0,0-1,.67l-.3.31-1.95-1.95L170,24a6.67,6.67,0,0,1,.6-.59,5.7,5.7,0,0,1,1-.75,6.74,6.74,0,0,1,1.44-.6,6.22,6.22,0,0,1,1.82-.27,5.51,5.51,0,0,1,4,1.45,4.79,4.79,0,0,1,1.53,3.64v8Zm-2.61-2.61a2.52,2.52,0,0,0,1.91-.76,3,3,0,0,0,.7-2.11V29l-2.87.53q-1.44.23-1.44,1.44C172.54,31.79,173.11,32.23,174.24,32.23Z"/><path class="cls-1" d="M187.42,16.56V34.84h-3.53V16.56Z"/><path class="cls-1" d="M20.38,26.66H16.67l-1.85,3.22,1.85,3.2h3.71l1.85-3.2Z"/><path class="cls-1" d="M20.38,34.76H16.67L14.82,38l1.85,3.21h3.71L22.23,38Z"/><path class="cls-1" d="M20.38,42.85H16.67l-1.85,3.21,1.85,3.21h3.71l1.85-3.21Z"/><path class="cls-1" d="M20.38,10.48H16.67l-1.85,3.2,1.85,3.21h3.71l1.85-3.21Z"/><path class="cls-1" d="M5.56,18.57H1.85L0,21.78,1.85,25H5.56l1.85-3.21Z"/><path class="cls-1" d="M35.2,34.76H31.5L29.64,38l1.86,3.21h3.7L37.05,38Z"/><path class="cls-1" d="M35.2,10.48H31.5l-1.86,3.2,1.86,3.21h3.7l1.85-3.21Z"/><path class="cls-1" d="M27.79,6.49H24.08L22.23,9.7l1.85,3.21h3.71L29.64,9.7Z"/><path class="cls-1" d="M27.79,38.77H24.08L22.23,42l1.85,3.21h3.71L29.64,42Z"/><path class="cls-1" d="M42.61,14.56h-3.7l-1.86,3.21L38.91,21h3.7l1.85-3.21Z"/><path class="cls-1" d="M42.61,22.63h-3.7l-1.86,3.21,1.86,3.21h3.7l1.85-3.21Z"/><path class="cls-1" d="M42.61,30.7h-3.7l-1.86,3.21,1.86,3.21h3.7l1.85-3.21Z"/><path class="cls-1" d="M13,14.56H9.26L7.41,17.77,9.26,21H13l1.85-3.21Z"/><path class="cls-1" d="M13,22.63H9.26L7.41,25.84l1.85,3.21H13l1.85-3.21Z"/><path class="cls-1" d="M26.88,48.42H25l-.94,1.63L25,51.67h1.88l.94-1.62Z"/><path class="cls-1" d="M26.88,32.28H25l-.94,1.63L25,35.53h1.88l.94-1.62Z"/><path class="cls-1" d="M26.88,24.21H25l-.94,1.63L25,27.46h1.88l.94-1.62Z"/><path class="cls-1" d="M26.88,16.14H25l-.94,1.63L25,19.39h1.88l.94-1.62Z"/><path class="cls-1" d="M19.46,20.15H17.59l-.94,1.63.94,1.63h1.87l.94-1.63Z"/><path class="cls-1" d="M34.29,44.44H32.41l-.94,1.62.94,1.63h1.88l.94-1.63Z"/><path class="cls-1" d="M34.29,28.25H32.41l-.94,1.63.94,1.62h1.88l.94-1.62Z"/><path class="cls-1" d="M34.29,20.15H32.41l-.94,1.63.94,1.63h1.88l.94-1.63Z"/><path class="cls-1" d="M41.7,40.35H39.82L38.88,42l.94,1.62H41.7L42.64,42Z"/><path class="cls-1" d="M49.11,36.34H47.23L46.29,38l.94,1.62h1.88L50.05,38Z"/><path class="cls-1" d="M49.11,28.25H47.23l-.94,1.63.94,1.62h1.88l.94-1.62Z"/><path class="cls-1" d="M49.11,20.15H47.23l-.94,1.63.94,1.63h1.88l.94-1.63Z"/><path class="cls-1" d="M49.11,12.06H47.23l-.94,1.62.94,1.63h1.88l.94-1.63Z"/><path class="cls-1" d="M41.7,8.07H39.82L38.88,9.7l.94,1.62H41.7l.94-1.62Z"/><path class="cls-1" d="M34.29,4H32.41l-.94,1.63.94,1.62h1.88l.94-1.62Z"/><path class="cls-1" d="M26.88,0H25l-.94,1.63L25,3.25h1.88l.94-1.62Z"/><path class="cls-1" d="M19.46,4H17.59l-.94,1.63.94,1.62h1.87l.94-1.62Z"/><path class="cls-1" d="M12.05,8.07H10.18L9.24,9.7l.94,1.62h1.87L13,9.7Z"/><path class="cls-1" d="M4.64,12.06H2.77l-.94,1.62.94,1.63H4.64l.94-1.63Z"/><path class="cls-1" d="M4.64,28.25H2.77l-.94,1.63.94,1.62H4.64l.94-1.62Z"/><path class="cls-1" d="M4.64,36.34H2.77L1.83,38l.94,1.62H4.64L5.58,38Z"/><path class="cls-1" d="M12.05,40.35H10.18L9.24,42l.94,1.62h1.87L13,42Z"/><path class="cls-1" d="M12.05,32.28H10.18l-.94,1.63.94,1.62h1.87L13,33.91Z"/></svg>