<svg id="Layer_1" data-name="Layer 1" xmlns="http://www.w3.org/2000/svg" xmlns:xlink="http://www.w3.org/1999/xlink" viewBox="0 0 48 45"><defs><style>.cls-1{fill:none;}.cls-2{clip-path:url(#clip-path);}.cls-3{fill:#bde59e;}</style><clipPath id="clip-path"><rect class="cls-1" width="48" height="45"/></clipPath></defs><g class="cls-2"><path class="cls-3" d="M46.37,23.2,33.91,14.57A12.75,12.75,0,0,0,34,13.19,12.89,12.89,0,0,0,31,5,13.86,13.86,0,0,0,23.27.32a14.27,14.27,0,0,0-9,1A13.43,13.43,0,0,0,7.82,7.51a13.48,13.48,0,0,0-6.45,6.15,12.71,12.71,0,0,0-1,8.67,13.12,13.12,0,0,0,4.83,7.39,14.1,14.1,0,0,0,8.58,2.88q.46,0,.9,0V43.64a1.35,1.35,0,0,0,.42,1,1.42,1.42,0,0,0,1,.4H26.76a1.41,1.41,0,0,0,1-.4,1.31,1.31,0,0,0,.42-1V37.19a2.91,2.91,0,0,1,.23-1.12,3,3,0,0,1,.66-1,3.17,3.17,0,0,1,3.32-.63,3.05,3.05,0,0,1,1,.63,2.81,2.81,0,0,1,.66,1,2.75,2.75,0,0,1,.24,1.12v6.45a1.34,1.34,0,0,0,.41,1,1.44,1.44,0,0,0,1,.4H46.51a1.57,1.57,0,0,0,1-.38,1.45,1.45,0,0,0,.49-.91V26.25a3.64,3.64,0,0,0-.43-1.71A4,4,0,0,0,46.37,23.2ZM20.23,2.55A11.38,11.38,0,0,1,28,5.63a10.54,10.54,0,0,1,3.29,7.46v.1a10.39,10.39,0,0,1-1,4.51,10.82,10.82,0,0,1-2.93,3.66,12.71,12.71,0,0,0,.15-1.95c0-.24,0-.48,0-.72a12.94,12.94,0,0,0-4.28-8.86,14,14,0,0,0-9.46-3.62,13.77,13.77,0,0,0-2,.15,11.09,11.09,0,0,1,3.81-2.81A11.5,11.5,0,0,1,20.23,2.55Zm24.94,39.8H37.1V37.19a5.44,5.44,0,0,0-1.7-3.94,6,6,0,0,0-8.21,0,5.44,5.44,0,0,0-1.7,3.94v5.09H17.42V32.13a13.93,13.93,0,0,0,3.11-1.24,1.26,1.26,0,0,0,.62-.77,1.2,1.2,0,0,0-.12-1,1.29,1.29,0,0,0-.8-.6,1.41,1.41,0,0,0-1,.11,10.68,10.68,0,0,1-1.8.79,11.83,11.83,0,0,1-2.77.55,8.9,8.9,0,0,1-.9,0,11.47,11.47,0,0,1-5.94-1.66,10.77,10.77,0,0,1-4.09-4.46,10.27,10.27,0,0,1-1-5.87,10.52,10.52,0,0,1,2.46-5.45,11.22,11.22,0,0,1,5.12-3.34,11.62,11.62,0,0,1,6.19-.18,11.19,11.19,0,0,1,5.33,3,10.51,10.51,0,0,1,2.81,5.29,9.77,9.77,0,0,1,.19,2,11.07,11.07,0,0,1-.06,1.15,10.33,10.33,0,0,1-1.37,4.09,1.18,1.18,0,0,0-.13,1,1.6,1.6,0,0,0,.23.45,1.38,1.38,0,0,0,.4.32,1.41,1.41,0,0,0,.49.16,1.53,1.53,0,0,0,.52,0,1.39,1.39,0,0,0,.46-.22,1.37,1.37,0,0,0,.34-.38c.16-.26.3-.53.44-.81A13.76,13.76,0,0,0,30.52,22a13,13,0,0,0,2.74-4.52l11.42,8a1.2,1.2,0,0,1,.35.39,1,1,0,0,1,.14.49Z"/><path class="cls-3" d="M15,18.75c-1.13-.38-1.89-.67-2.14-.78-.41-.19-.45-.41-.44-.59a.73.73,0,0,1,.47-.64c1.08-.31,1.73,0,1.88.22a1.27,1.27,0,0,0,.38.35,1.42,1.42,0,0,0,.48.19,1.35,1.35,0,0,0,.53,0,1.44,1.44,0,0,0,.48-.2,1.27,1.27,0,0,0,.36-.37,1.14,1.14,0,0,0,.19-.47,1.21,1.21,0,0,0,0-.5,1.39,1.39,0,0,0-.22-.46,3.68,3.68,0,0,0-2.09-1.29,1.28,1.28,0,0,0-.45-.81,1.42,1.42,0,0,0-.91-.3,1.36,1.36,0,0,0-.88.36,1.22,1.22,0,0,0-.4.83l-.1,0a3.39,3.39,0,0,0-1.63,1.1,3.24,3.24,0,0,0-.71,1.78,3.06,3.06,0,0,0,1.95,3.08c.39.18,1.26.5,2.38.88a1.35,1.35,0,0,1,1.07,1.29c-.07.56-.75.69-1.15.72a2.78,2.78,0,0,1-2.17-.65,1.45,1.45,0,0,0-.4-.34,1.39,1.39,0,0,0-.5-.15,1.3,1.3,0,0,0-.52,0,1.21,1.21,0,0,0-.47.23,1.41,1.41,0,0,0-.34.39,1.34,1.34,0,0,0-.15.48,1.06,1.06,0,0,0,.06.5,1.14,1.14,0,0,0,.25.44,4.54,4.54,0,0,0,2.44,1.43,1.22,1.22,0,0,0,.38.68,1.26,1.26,0,0,0,.72.35,1.42,1.42,0,0,0,.79-.11,1.34,1.34,0,0,0,.59-.54,1,1,0,0,0,.11-.29,3.45,3.45,0,0,0,3-2.86,3.11,3.11,0,0,0,0-.61A3.91,3.91,0,0,0,15,18.75Z"/></g></svg>